<svg width="4" height="8" viewBox="0 0 4 8" fill="none" xmlns="http://www.w3.org/2000/svg">
<path fill-rule="evenodd" clip-rule="evenodd" d="M3.34247 6.50925L3.25307 6.87497C2.98488 6.98062 2.77087 7.06121 2.61104 7.11675C2.45121 7.17228 2.26564 7.20005 2.05434 7.20005C1.72926 7.20005 1.47665 7.12081 1.2965 6.96233C1.11635 6.80386 1.02628 6.60272 1.02628 6.35891C1.02628 6.26409 1.03305 6.16724 1.04659 6.06837C1.06014 5.96949 1.08181 5.85774 1.11161 5.73313L1.44482 4.54659C1.47461 4.43281 1.49967 4.32513 1.51999 4.22354C1.54031 4.12195 1.55047 4.02917 1.55047 3.94519C1.55047 3.79349 1.51931 3.68784 1.45701 3.62824C1.3947 3.56864 1.2755 3.53884 1.09942 3.53884C1.01273 3.53884 0.924012 3.55239 0.83326 3.57948C0.742508 3.60657 0.664626 3.6323 0.599609 3.65668L0.689006 3.29097C0.908436 3.20157 1.11838 3.12504 1.31885 3.06138C1.51931 2.99772 1.70894 2.96589 1.88774 2.96589C2.21011 2.96589 2.45866 3.04377 2.63339 3.19954C2.80812 3.35531 2.89548 3.5578 2.89548 3.80703C2.89548 3.8585 2.88939 3.94925 2.8772 4.07929C2.86501 4.20932 2.84266 4.32851 2.81015 4.43687L2.47694 5.61935C2.44985 5.71417 2.42547 5.82252 2.4038 5.94443C2.38213 6.06633 2.37129 6.15844 2.37129 6.22075C2.37129 6.37787 2.40651 6.48487 2.47694 6.54176C2.54738 6.59865 2.66928 6.6271 2.84266 6.6271C2.92393 6.6271 3.01603 6.61287 3.11897 6.58443C3.22192 6.55598 3.29641 6.53093 3.34247 6.50925ZM3.4278 1.54773C3.4278 1.75362 3.34992 1.92902 3.19415 2.07395C3.03838 2.21889 2.85079 2.29135 2.63136 2.29135C2.41193 2.29135 2.22365 2.21889 2.06653 2.07395C1.90941 1.92902 1.83085 1.75362 1.83085 1.54773C1.83085 1.34185 1.90941 1.16576 2.06653 1.01948C2.22365 0.873191 2.41193 0.800049 2.63136 0.800049C2.85079 0.800049 3.03838 0.873191 3.19415 1.01948C3.34992 1.16576 3.4278 1.34185 3.4278 1.54773Z" fill="#666666"/>
</svg>
